# xmcd
#
# Track frame offsets:
#	150
#	11240
#	27140
#	57834
#	76020
#	98515
#	112688
#	128009
#	141760
#	157518
#	175441
#	190112
#	208029
#	223344
#	240357
#	255355
#	266467
#	282085
#	296619
#
# Disc length: 4069 seconds
#
# Revision: 0
# Processed by: cddbd v1.5.2PL0 Copyright (c) Steve Scherf et al.
# Submitted via: EasyCDDAExtractor 16.0.6.1
#
DISCID=f50fe313
DTITLE=Συλλογικός δίσκος - Μουσικό ημερολόγιο 2006 Δεξιοτ. μπουζουκιού
DYEAR=2005
DGENRE=Ποικίλη
TTITLE0=Άνευ ερμηνευτού - Κάνε με ό,τι θες [Γ. Ζαμπέτας, ιδίου κ Κ. Καραγιάννη
TTITLE0=]
TTITLE1=Βασίλας Γρηγόρης - Ποιος θα με πληροφορήσει [Γρ. Βασίλας, Α. Καλδάρα-Κ
TTITLE1=Βίρβου]
TTITLE2=Άνευ ερμηνευτού - Χόρα [συγκ. μπουζ. Ραστ, Γ. Τσιμπίδη]
TTITLE3=Άνευ ερμηνευτού - Χόρα [Βαγγ. Τρίγκας, ιδίου]
TTITLE4=Παπαβασιλείου Γιάννης - Για να σε κάνω άνθρωπο [Γ. Παπαβασιλείου, Β.Τσ
TTITLE4=ιτσάνη-Κ.Βίρβου]
TTITLE5=Τζουανάκος Σταύρος - Μακάρι να πεθάνω [Σ. Τζουανάκος, Μ.Μπακάλη-Κ.Βίρβ
TTITLE5=ου]
TTITLE6=Άνευ ερμηνευτού - Χασάπικος χορός [Λ. Καρνέζης κ Κ. Παπαδόπουλος]
TTITLE7=Στεργίου Δημήτρης ή Μπέμπης - Δεν ξαναπαίζω ζάρια [Χρ. Χριστόπουλος, Π
TTITLE7=ερπινιάδη-Φραγκούλη]
TTITLE8=Καζαντζίδης Στέλιος - Θέλω να πω τον πόνο μου [Μ. Χιώτη-Χρ. Κολοκοτρών
TTITLE8=η]
TTITLE9=Άνευ ερμηνευτού - Σόλο μπουζούκι [Ανέστος Αθανασίου, ιδίου]
TTITLE10=Κοκόλης Κοσμάς - Όλα σού τά 'δωσα [Κ. Κοκόλης, Ν.Καρανικόλα-Ε.Ζωλοτάκ
TTITLE10=η]
TTITLE11=Άνευ ερμηνευτού - Σόλο Μακρυδάκη [Στ. Μακρυδάκης]
TTITLE12=Τατασσόπουλος Γιάννης - Μάγισσες φέρτε βότανα [Γ. Τατασσόπουλου-Ν. Ρο
TTITLE12=ύτσου]
TTITLE13=Άνευ ερμηνευτού - Oriental [Γ. Σταματίου]
TTITLE14=Άνευ ερμηνευτού - Καρσιλαμάς [Γ. Παλαιολόγος, Τζίμυ Λινάρδου]
TTITLE15=Άνευ ερμηνευτού - Χασαποσέρβικο [Βαγγ. Τρίγκας, ιδίου]
TTITLE16=Καζαντζίδης Στέλιος - Χίλιες νύχτες όμορφες [Γ. Σταματίου, Χιώτη-Κολο
TTITLE16=κοτρώνη]
TTITLE17=Άνευ ερμηνευτού - Χορός των αγγέλων [Δημ. Χιονάς]
TTITLE18=Άνευ ερμηνευτού - Ταξίμι [Χρ. Νικολόπουλος, ιδίου]
EXTD=
EXTT0=
EXTT1=
EXTT2=
EXTT3=
EXTT4=
EXTT5=
EXTT6=
EXTT7=
EXTT8=
EXTT9=
EXTT10=
EXTT11=
EXTT12=
EXTT13=
EXTT14=
EXTT15=
EXTT16=
EXTT17=
EXTT18=
PLAYORDER=
